<svg xmlns="http://www.w3.org/2000/svg" width="32" height="32" viewBox="0 0 32 32">
    <path fill="#FFF" fill-rule="evenodd" d="M16 30C8.268 30 2 23.732 2 16S8.268 2 16 2s14 6.268 14 14-6.268 14-14 14zm0-22c-2.173 0-2.445.01-3.298.048-.852.039-1.433.174-1.942.372a3.921 3.921 0 0 0-1.417.923 3.92 3.92 0 0 0-.923 1.417c-.198.509-.333 1.09-.372 1.942C8.01 13.555 8 13.827 8 16s.01 2.445.048 3.298c.039.852.174 1.433.372 1.942.204.526.478.973.923 1.417.444.445.89.719 1.417.923.509.198 1.09.333 1.942.372.853.039 1.125.048 3.298.048s2.445-.01 3.298-.048c.852-.039 1.433-.174 1.942-.372a3.921 3.921 0 0 0 1.417-.923c.445-.444.719-.89.923-1.417.198-.509.333-1.09.372-1.942.039-.853.048-1.125.048-3.298s-.01-2.445-.048-3.298c-.039-.852-.174-1.433-.372-1.942a3.921 3.921 0 0 0-.923-1.417 3.921 3.921 0 0 0-1.417-.923c-.509-.198-1.09-.333-1.942-.372C18.445 8.01 18.173 8 16 8zm0 1.441c2.136 0 2.39.009 3.233.047.78.036 1.203.166 1.485.276.374.145.64.318.92.598.28.28.453.546.598.92.11.282.24.705.276 1.485.038.844.047 1.097.047 3.233s-.009 2.39-.047 3.233c-.036.78-.166 1.203-.276 1.485-.145.374-.318.64-.598.92-.28.28-.546.453-.92.598-.282.11-.705.24-1.485.276-.844.038-1.097.047-3.233.047s-2.39-.009-3.233-.047c-.78-.036-1.203-.166-1.485-.276a2.478 2.478 0 0 1-.92-.598 2.48 2.48 0 0 1-.598-.92c-.11-.282-.24-.705-.276-1.485-.038-.844-.047-1.097-.047-3.233s.009-2.39.047-3.233c.036-.78.166-1.203.276-1.485a2.48 2.48 0 0 1 .598-.92c.28-.28.546-.453.92-.598.282-.11.705-.24 1.485-.276.844-.038 1.097-.047 3.233-.047zM16 12a4 4 0 1 0 0 8 4 4 0 0 0 0-8zm0 6.596a2.597 2.597 0 1 1 0-5.193 2.597 2.597 0 0 1 0 5.193zM21 12a1 1 0 1 0-2 0 1 1 0 0 0 2 0z"/>
</svg>
