<svg xmlns="http://www.w3.org/2000/svg" width="32" height="32" viewBox="0 0 32 32">
    <path fill="#FFF" fill-rule="evenodd" d="M16 30C8.268 30 2 23.732 2 16S8.268 2 16 2s14 6.268 14 14-6.268 14-14 14zM11.43 9a1.43 1.43 0 1 0-.002 2.858A1.43 1.43 0 0 0 11.43 9zm-1.234 11.87h2.467v-7.928h-2.467v7.929zm6.374-7.928h-2.36v7.929h2.461v-3.922c0-1.034.196-2.037 1.477-2.037 1.265 0 1.281 1.183 1.281 2.102v3.857h2.464v-4.349c0-2.136-.46-3.777-2.957-3.777-1.199 0-2.002.657-2.331 1.28h-.035v-1.083z"/>
</svg>
