<svg xmlns="http://www.w3.org/2000/svg" width="32" height="32" viewBox="0 0 32 32">
    <path fill="#FFF" fill-rule="evenodd" d="M16 30C8.268 30 2 23.732 2 16S8.268 2 16 2s14 6.268 14 14-6.268 14-14 14zm7.84-16.627s-.156-1.078-.636-1.552c-.608-.623-1.29-.626-1.603-.663C19.362 11 16.003 11 16.003 11h-.006s-3.359 0-5.598.158c-.313.037-.994.04-1.603.663-.48.474-.636 1.552-.636 1.552S8 14.64 8 15.904v1.187c0 1.265.16 2.531.16 2.531s.156 1.078.636 1.552c.609.623 1.408.604 1.764.669C11.84 21.963 16 22 16 22s3.362-.005 5.601-.163c.313-.037.995-.04 1.603-.663.48-.474.636-1.552.636-1.552s.16-1.266.16-2.531v-1.187c0-1.265-.16-2.53-.16-2.53zm-9.492 5.156v-4.395l4.323 2.205-4.323 2.19z"/>
</svg>
