<svg xmlns="http://www.w3.org/2000/svg" width="33" height="40" viewBox="0 0 33 40">
    <defs>
        <radialGradient id="a" r="187.232%" fx="50%" fy="50%" gradientTransform="matrix(.24324 0 0 .23225 .378 .384)">
            <stop offset="0%"/>
            <stop offset="100%" stop-opacity="0"/>
        </radialGradient>
    </defs>
    <g fill="none" fill-rule="evenodd" transform="translate(-2)">
        <ellipse cx="18.5" cy="36.5" fill="url(#a)" opacity=".1" rx="18.5" ry="4.5"/>
        <path fill="#8894A3" d="M18.5 0C11.6 0 6 5.6 6 12.5c0 8.05 10.99 18.63 11.46 19.08a1.484 1.484 0 0 0 2.07 0C20 31.13 31 20.55 31 12.5 31 5.6 25.39 0 18.5 0z"/>
        <path fill="#FFF" fill-rule="nonzero" d="M18.5 18.5c-3.309 0-6-2.691-6-6s2.691-6 6-6 6 2.691 6 6-2.691 6-6 6z"/>
    </g>
</svg>
